# xmcd CD database file
#
# Track frame offsets:
#	150
#	13290
#	29055
#	42830
#	57191
#	92171
#	105563
#	122742
#	138784
#	154478
#	165698
#	179442
#	193620
#
# Disc length: 2767 seconds
#
# Revision: 0
# Processed by: cddbd v1.5.2PL0 Copyright (c) Steve Scherf et al.
# Submitted via: CDex 1.70beta2
#
DISCID=b30acd0d
DTITLE=Bobby Angel - Terug by my Mense
DYEAR=1900
DGENRE=Country
TTITLE0=Dream of me
TTITLE1=Terug by my mense
TTITLE2=I recall a gypsy woman
TTITLE3=Die kleur van jou oe
TTITLE4=Country medley
TTITLE5=Altyd jy
TTITLE6=Two cowboys (duet with Lance James)
TTITLE7=Is this te way to Amarillo
TTITLE8=Hoe gaan ek sonder liefde aan
TTITLE9=Friends forever (duet with Lance James)
TTITLE10=Die wals van die lewe
TTITLE11=I like it I love it
TTITLE12=The old rugged cross
EXTD=
EXTT0=
EXTT1=
EXTT2=
EXTT3=
EXTT4=
EXTT5=
EXTT6=
EXTT7=
EXTT8=
EXTT9=
EXTT10=
EXTT11=
EXTT12=
PLAYORDER=
